<svg width="19" height="22" viewBox="0 0 19 22" fill="none" xmlns="http://www.w3.org/2000/svg">
<path d="M16.7715 8.51045C16.7327 8.48842 16.685 8.48892 16.6465 8.51143L10.5791 12.0778C10.541 12.1002 10.5177 12.1411 10.5176 12.1853V18.8776C10.5176 18.9225 10.5421 18.9638 10.5811 18.986C10.62 19.0081 10.6675 19.0078 10.7061 18.9851L16.7734 15.3981C16.8113 15.3757 16.8348 15.3347 16.835 15.2907V8.61983C16.835 8.57499 16.8104 8.53272 16.7715 8.51045ZM13.5664 5.37276L13.5352 5.38643L7.36914 9.02608C7.33083 9.04872 7.30732 9.08997 7.30762 9.13448C7.30803 9.17881 7.33167 9.21981 7.37012 9.2419L9.47754 10.448C9.51627 10.4701 9.56399 10.4704 9.60254 10.448L15.7793 6.8503C15.8176 6.82796 15.8417 6.78627 15.8418 6.7419C15.8418 6.69769 15.8183 6.65697 15.7803 6.63448L13.6621 5.38643C13.6328 5.36916 13.5984 5.36418 13.5664 5.37276ZM9.50684 2.9919L9.47656 3.00459L3.29883 6.63448C3.26066 6.65695 3.23729 6.69761 3.2373 6.7419C3.23736 6.78614 3.26071 6.82689 3.29883 6.84932L5.27344 8.00362C5.31252 8.02645 5.36138 8.02658 5.40039 8.00362L11.5664 4.37373C11.6044 4.35123 11.6279 4.31052 11.6279 4.26631C11.6279 4.22213 11.6045 4.18133 11.5664 4.15889L9.60254 3.00459C9.57328 2.98752 9.53868 2.98331 9.50684 2.9919ZM8.56152 12.1853C8.56141 12.1412 8.53796 12.1003 8.5 12.0778L2.43262 8.51143C2.39415 8.48885 2.34642 8.48849 2.30762 8.51045C2.2687 8.53272 2.24414 8.57499 2.24414 8.61983V15.322C2.24423 15.3664 2.26823 15.4071 2.30664 15.4294L8.37402 18.9538C8.41265 18.9761 8.46035 18.977 8.49902 18.9548C8.53763 18.9325 8.56138 18.8909 8.56152 18.8464V12.1853ZM0.408203 6.64912C0.403823 6.62061 0.401349 6.59192 0.401367 6.56319L0.408203 6.47725C0.409124 6.47112 0.409178 6.4649 0.40918 6.45869V6.32588L0.457031 6.21065L0.489258 6.17451L0.584961 6.11201L0.59668 6.10323L0.696289 6.01924L0.695312 6.01826L0.785156 5.95284L9.01855 1.08076L9.01758 1.07979C9.11598 1.02489 9.22345 0.986059 9.33496 0.961624H9.42871L9.44824 0.959671C9.53373 0.946104 9.62154 0.946145 9.70703 0.959671C9.71338 0.960679 9.72013 0.961604 9.72656 0.961624H9.79492C9.89116 0.990049 9.98105 1.03429 10.0596 1.09346L10.0713 1.10127L14.1738 3.51241V3.51338L18.5205 6.12569C18.5399 6.13729 18.5624 6.14326 18.585 6.14326H18.5938L18.6582 6.19795C18.6858 6.22188 18.7092 6.24922 18.7285 6.27901L18.7793 6.39912V6.46944H18.7803C18.7772 6.49395 18.7772 6.51817 18.7803 6.54268C18.7765 6.57076 18.7765 6.59858 18.7803 6.62666H18.7793V6.63057C18.779 6.63355 18.779 6.63782 18.7783 6.64229C18.7769 6.65135 18.7748 6.66157 18.7725 6.67159C18.7702 6.68146 18.7674 6.69056 18.7656 6.69698C18.7648 6.69992 18.7641 6.70224 18.7637 6.70381L18.7627 6.70576C18.7592 6.71743 18.7578 6.72971 18.7578 6.7419V15.8991C18.758 16.016 18.7347 16.1316 18.6895 16.2399L18.6367 16.3454C18.5769 16.4482 18.4971 16.5395 18.4014 16.614L18.3008 16.6823L10.1016 21.4704L9.96973 21.5212H9.90332L9.86719 21.5271C9.70427 21.5761 9.52913 21.5761 9.36621 21.5271L9.33008 21.5212H9.2627L9.12793 21.4694L0.866211 16.6091H0.867188C0.761349 16.5462 0.669446 16.4653 0.59668 16.3708L0.530273 16.2722C0.470556 16.1695 0.432274 16.0573 0.416992 15.9421L0.40918 15.8259V6.66866L0.408203 6.64912Z" fill="black" stroke="#F1F1F1" stroke-width="0.25" stroke-linejoin="round"/>
</svg>
